<svg xmlns="http://www.w3.org/2000/svg" xmlns:xlink="http://www.w3.org/1999/xlink" width="1752" height="812pt" viewBox="0 0 1313.65 812"><g id="graph0" class="graph" transform="scale(1 1) rotate(0) translate(4 808)"><title>G</title><polygon fill="#fff" stroke="transparent" points="-4 4 -4 -808 1309.646 -808 1309.646 4 -4 4"/><g id="clust1" class="cluster"><title>cluster_0</title><polygon fill="#d3d3d3" stroke="#d3d3d3" points="8 -383 8 -697 847.957 -697 847.957 -383 8 -383"/><text x="427.978" y="-664.2" fill="#000" font-family="Arial" font-size="32" text-anchor="middle">ArgoCD Cluster</text></g><g id="clust2" class="cluster"><title>cluster_1</title><polygon fill="#00bfff" stroke="#00bfff" points="1023.209 -8 1023.209 -796 1305.646 -796 1305.646 -8 1023.209 -8"/><text x="1164.428" y="-763.2" fill="#000" font-family="Arial" font-size="32" text-anchor="middle">Application Cluster</text></g><g id="clust3" class="cluster"><title>cluster_istio</title><polygon fill="none" stroke="#000" points="1063.859 -275 1063.859 -742 1263.996 -742 1263.996 -275 1063.859 -275"/><text x="1163.928" y="-716.4" fill="#000" font-family="Arial" font-size="24" text-anchor="middle">NS istio-system</text></g><g id="clust4" class="cluster"><title>cluster_app</title><polygon fill="none" stroke="#000" points="1054.209 -16 1054.209 -267 1273.646 -267 1273.646 -16 1054.209 -16"/><text x="1163.928" y="-241.4" fill="#000" font-family="Arial" font-size="24" text-anchor="middle">NS ambient</text></g><g id="node1" class="node application"><title>meta</title><ellipse cx="120.932" cy="-490" fill="#fff" stroke="#fff" rx="104.864" ry="18"/><text x="120.932" y="-485.8" fill="#000" font-family="Arial" font-size="14" text-anchor="middle">meta-application.yaml</text></g><g id="node2" class="node application"><title>app</title><ellipse cx="390.952" cy="-463" fill="#fff" stroke="#fff" rx="129.176" ry="18"/><text x="390.952" y="-458.8" fill="#000" font-family="Arial" font-size="14" text-anchor="middle">application/application.yaml</text></g><g id="edge1" class="edge"><title>meta-&gt;app</title><path fill="none" stroke="#000" d="M211.5958,-480.9343C232.0966,-478.8843 254.1321,-476.681 275.4998,-474.5443"/><polygon fill="#000" stroke="#000" points="275.991 -478.013 285.593 -473.535 275.294 -471.048 275.991 -478.013"/></g><g id="node3" class="node application"><title>istio</title><ellipse cx="390.952" cy="-517" fill="#fff" stroke="#fff" rx="34.785" ry="18"/><text x="390.952" y="-512.8" fill="#000" font-family="Arial" font-size="14" text-anchor="middle">istio/*</text></g><g id="edge2" class="edge"><title>meta-&gt;istio</title><path fill="none" stroke="#000" d="M211.5958,-499.0657C257.0549,-503.6113 310.0598,-508.9114 346.598,-512.565"/><polygon fill="#000" stroke="#000" points="346.615 -516.084 356.914 -513.596 347.312 -509.119 346.615 -516.084"/></g><g id="node21" class="node"><title>appfiles</title><ellipse cx="939.583" cy="-123" fill="none" stroke="#000" rx="63.753" ry="18"/><text x="939.583" y="-118.8" fill="#000" font-family="Arial" font-size="14" text-anchor="middle">application/*</text></g><g id="edge8" class="edge"><title>app-&gt;appfiles</title><path fill="none" stroke="#000" d="M419.2932,-445.4361C511.5197,-388.2811 802.9579,-207.6699 904.378,-144.8174"/><polygon fill="#000" stroke="#000" points="906.375 -147.698 913.031 -139.455 902.687 -141.748 906.375 -147.698"/></g><g id="node4" class="node application"><title>cni</title><ellipse cx="697.998" cy="-625" fill="#fff" stroke="#fff" rx="66.086" ry="18"/><text x="697.998" y="-620.8" fill="#000" font-family="Arial" font-size="14" text-anchor="middle">istio/cni.yaml</text></g><g id="edge3" class="edge"><title>istio-&gt;cni</title><path fill="none" stroke="#000" d="M413.8915,-530.7304C445.0273,-548.7794 502.8914,-580.2666 556.0395,-598 578.9462,-605.643 604.6965,-611.3557 627.9137,-615.509"/><polygon fill="#000" stroke="#000" points="627.588 -619.004 638.037 -617.252 628.776 -612.106 627.588 -619.004"/></g><g id="node5" class="node application"><title>cpt</title><ellipse cx="697.998" cy="-571" fill="#fff" stroke="#fff" rx="141.917" ry="18"/><text x="697.998" y="-566.8" fill="#000" font-family="Arial" font-size="14" text-anchor="middle">istio/control-plane-appset.yaml</text></g><g id="edge4" class="edge"><title>istio-&gt;cpt</title><path fill="none" stroke="#000" d="M423.8111,-522.7789C466.6763,-530.3176 543.445,-543.8189 604.8692,-554.6215"/><polygon fill="#000" stroke="#000" points="604.521 -558.114 614.976 -556.399 605.734 -551.22 604.521 -558.114"/></g><g id="node6" class="node application"><title>ztunnel</title><ellipse cx="697.998" cy="-517" fill="#fff" stroke="#fff" rx="85.162" ry="18"/><text x="697.998" y="-512.8" fill="#000" font-family="Arial" font-size="14" text-anchor="middle">istio/ztunnel.yaml</text></g><g id="edge5" class="edge"><title>istio-&gt;ztunnel</title><path fill="none" stroke="#000" d="M425.8749,-517C468.5188,-517 542.3777,-517 602.3966,-517"/><polygon fill="#000" stroke="#000" points="602.665 -520.5 612.665 -517 602.665 -513.5 602.665 -520.5"/></g><g id="node7" class="node application"><title>extras</title><ellipse cx="697.998" cy="-463" fill="#fff" stroke="#fff" rx="80.491" ry="18"/><text x="697.998" y="-458.8" fill="#000" font-family="Arial" font-size="14" text-anchor="middle">istio/extras.yaml</text></g><g id="edge6" class="edge"><title>istio-&gt;extras</title><path fill="none" stroke="#000" d="M423.8111,-511.2211C471.4639,-502.8404 561.0164,-487.0909 624.8076,-475.872"/><polygon fill="#000" stroke="#000" points="625.572 -479.291 634.814 -474.112 624.359 -472.397 625.572 -479.291"/></g><g id="node8" class="node application"><title>tags</title><ellipse cx="697.998" cy="-409" fill="#fff" stroke="#fff" rx="72.404" ry="18"/><text x="697.998" y="-404.8" fill="#000" font-family="Arial" font-size="14" text-anchor="middle">istio/tags.yaml</text></g><g id="edge7" class="edge"><title>istio-&gt;tags</title><path fill="none" stroke="#000" d="M425.7836,-516.7543C453.4704,-514.9968 492.0619,-508.9151 520.0395,-490 543.9352,-473.8446 531.9975,-451.9368 556.0395,-436 573.8204,-424.2135 595.4515,-417.2781 616.4132,-413.2715"/><polygon fill="#000" stroke="#000" points="617.037 -416.716 626.304 -411.581 615.857 -409.816 617.037 -416.716"/></g><g id="node24" class="node helm"><title>cnichart</title><ellipse cx="939.583" cy="-652" fill="none" stroke="#000" rx="27" ry="18"/><text x="939.583" y="-647.8" fill="#000" font-family="Arial" font-size="14" text-anchor="middle">cni</text></g><g id="edge18" class="edge"><title>cni-&gt;cnichart</title><path fill="none" stroke="#000" d="M759.5853,-631.8831C804.8202,-636.9386 864.7721,-643.639 902.7717,-647.8859"/><polygon fill="#000" stroke="#000" points="902.55 -651.383 912.877 -649.015 903.328 -644.426 902.55 -651.383"/></g><g id="node23" class="node helm"><title>istiodchart</title><ellipse cx="939.583" cy="-571" fill="none" stroke="#000" rx="33.642" ry="18"/><text x="939.583" y="-566.8" fill="#000" font-family="Arial" font-size="14" text-anchor="middle">istiod</text></g><g id="edge15" class="edge"><title>cpt-&gt;istiodchart</title><path fill="none" stroke="#000" d="M840.2754,-571C860.2737,-571 879.4603,-571 895.5463,-571"/><polygon fill="#000" stroke="#000" points="895.647 -574.5 905.647 -571 895.647 -567.5 895.647 -574.5"/></g><g id="node22" class="node helm"><title>ztunchart</title><ellipse cx="939.583" cy="-517" fill="none" stroke="#000" rx="42.33" ry="18"/><text x="939.583" y="-512.8" fill="#000" font-family="Arial" font-size="14" text-anchor="middle">ztunnel</text></g><g id="edge13" class="edge"><title>ztunnel-&gt;ztunchart</title><path fill="none" stroke="#000" d="M783.1719,-517C817.6835,-517 856.4552,-517 886.7626,-517"/><polygon fill="#000" stroke="#000" points="887.109 -520.5 897.109 -517 887.109 -513.5 887.109 -520.5"/></g><g id="node25" class="node"><title>istiogh</title><ellipse cx="939.583" cy="-463" fill="none" stroke="#000" rx="57.373" ry="18"/><text x="939.583" y="-458.8" fill="#000" font-family="Arial" font-size="14" text-anchor="middle">istio github</text></g><g id="edge20" class="edge"><title>extras-&gt;istiogh</title><path fill="none" stroke="#000" d="M778.4424,-463C808.8927,-463 843.2079,-463 872.322,-463"/><polygon fill="#000" stroke="#000" points="872.388 -466.5 882.388 -463 872.388 -459.5 872.388 -466.5"/></g><g id="node26" class="node"><title>tagchart</title><ellipse cx="939.583" cy="-382" fill="none" stroke="#000" rx="28.426" ry="18"/><text x="939.583" y="-377.8" fill="#000" font-family="Arial" font-size="14" text-anchor="middle">tag*</text></g><g id="edge22" class="edge"><title>tags-&gt;tagchart</title><path fill="none" stroke="#000" d="M764.0123,-401.6221C808.1344,-396.691 864.6277,-390.3772 901.4417,-386.2628"/><polygon fill="#000" stroke="#000" points="902.188 -389.701 911.737 -385.112 901.411 -382.745 902.188 -389.701"/></g><g id="node9" class="node"><title>istiod18</title><ellipse cx="1163.928" cy="-571" fill="#fff" stroke="#fff" rx="92.138" ry="18"/><text x="1163.928" y="-566.8" fill="#000" font-family="Arial" font-size="14" text-anchor="middle">Istio 1.18.5 Control</text></g><g id="node10" class="node"><title>istiod19</title><ellipse cx="1163.928" cy="-625" fill="#fff" stroke="#fff" rx="92.138" ry="18"/><text x="1163.928" y="-620.8" fill="#000" font-family="Arial" font-size="14" text-anchor="middle">Istio 1.19.3 Control</text></g><g id="node11" class="node"><title>ztunnelds</title><ellipse cx="1163.928" cy="-517" fill="#fff" stroke="#fff" rx="42.33" ry="18"/><text x="1163.928" y="-512.8" fill="#000" font-family="Arial" font-size="14" text-anchor="middle">ztunnel</text></g><g id="node12" class="node"><title>cnids</title><ellipse cx="1163.928" cy="-679" fill="#fff" stroke="#fff" rx="27" ry="18"/><text x="1163.928" y="-674.8" fill="#000" font-family="Arial" font-size="14" text-anchor="middle">cni</text></g><g id="node13" class="node"><title>extrads</title><ellipse cx="1163.928" cy="-463" fill="#fff" stroke="#fff" rx="80.029" ry="18"/><text x="1163.928" y="-458.8" fill="#000" font-family="Arial" font-size="14" text-anchor="middle">prometheus, etc</text></g><g id="node14" class="node"><title>tagdef</title><ellipse cx="1163.928" cy="-301" fill="#fff" stroke="#fff" rx="91.636" ry="18"/><text x="1163.928" y="-296.8" fill="#000" font-family="Arial" font-size="14" text-anchor="middle">tag default-&gt;1.18.5</text></g><g id="node15" class="node"><title>tagrap</title><ellipse cx="1163.928" cy="-409" fill="#fff" stroke="#fff" rx="84.094" ry="18"/><text x="1163.928" y="-404.8" fill="#000" font-family="Arial" font-size="14" text-anchor="middle">tag rapid-&gt;1.19.3</text></g><g id="node16" class="node"><title>tagsta</title><ellipse cx="1163.928" cy="-355" fill="#fff" stroke="#fff" rx="88.689" ry="18"/><text x="1163.928" y="-350.8" fill="#000" font-family="Arial" font-size="14" text-anchor="middle">tag stable-&gt;1.18.5</text></g><g id="node17" class="node"><title>appcontents</title><ellipse cx="1163.928" cy="-204" fill="#fff" stroke="#fff" rx="52.805" ry="18"/><text x="1163.928" y="-199.8" fill="#000" font-family="Arial" font-size="14" text-anchor="middle">App Pods</text></g><g id="node18" class="node"><title>appwp</title><ellipse cx="1163.928" cy="-150" fill="#fff" stroke="#fff" rx="75.938" ry="18"/><text x="1163.928" y="-145.8" fill="#000" font-family="Arial" font-size="14" text-anchor="middle">App Waypoints</text></g><g id="node19" class="node"><title>ig</title><ellipse cx="1163.928" cy="-96" fill="#fff" stroke="#fff" rx="83.462" ry="18"/><text x="1163.928" y="-91.8" fill="#000" font-family="Arial" font-size="14" text-anchor="middle">Ingress Gateway</text></g><g id="node20" class="node"><title>nwc</title><ellipse cx="1163.928" cy="-42" fill="#fff" stroke="#fff" rx="101.937" ry="18"/><text x="1163.928" y="-37.8" fill="#000" font-family="Arial" font-size="14" text-anchor="middle">App Network Configs</text></g><g id="edge9" class="edge"><title>appfiles-&gt;appcontents</title><path fill="none" stroke="#000" d="M961.0135,-140.1528C977.1938,-152.2485 1000.4326,-167.8639 1023.2093,-177 1048.2699,-187.0522 1077.3771,-193.4341 1102.594,-197.451"/><polygon fill="#000" stroke="#000" points="1102.366 -200.956 1112.775 -198.98 1103.406 -194.034 1102.366 -200.956"/></g><g id="edge10" class="edge"><title>appfiles-&gt;appwp</title><path fill="none" stroke="#000" d="M998.2339,-130.0587C1025.0608,-133.2873 1057.2224,-137.158 1086.0429,-140.6265"/><polygon fill="#000" stroke="#000" points="1085.737 -144.115 1096.083 -141.835 1086.573 -137.165 1085.737 -144.115"/></g><g id="edge11" class="edge"><title>appfiles-&gt;ig</title><path fill="none" stroke="#000" d="M998.2339,-115.9413C1023.4405,-112.9077 1053.3568,-109.3073 1080.7861,-106.0061"/><polygon fill="#000" stroke="#000" points="1081.256 -109.475 1090.766 -104.805 1080.419 -102.525 1081.256 -109.475"/></g><g id="edge12" class="edge"><title>appfiles-&gt;nwc</title><path fill="none" stroke="#000" d="M961.0135,-105.8472C977.1938,-93.7515 1000.4326,-78.1361 1023.2093,-69 1038.2182,-62.9797 1054.6785,-58.2759 1070.8853,-54.6082"/><polygon fill="#000" stroke="#000" points="1071.884 -57.974 1080.928 -52.456 1070.417 -51.129 1071.884 -57.974"/></g><g id="edge14" class="edge"><title>ztunchart-&gt;ztunnelds</title><path fill="none" stroke="#000" d="M981.7805,-517C1018.483,-517 1071.8266,-517 1111.3079,-517"/><polygon fill="#000" stroke="#000" points="1111.539 -520.5 1121.538 -517 1111.538 -513.5 1111.539 -520.5"/></g><g id="edge16" class="edge"><title>istiodchart-&gt;istiod18</title><path fill="none" stroke="#000" d="M973.1697,-571C996.6632,-571 1029.3994,-571 1061.1283,-571"/><polygon fill="#000" stroke="#000" points="1061.381 -574.5 1071.381 -571 1061.381 -567.5 1061.381 -574.5"/></g><g id="edge17" class="edge"><title>istiodchart-&gt;istiod19</title><path fill="none" stroke="#000" d="M967.5888,-580.9932C983.7127,-586.5063 1004.4405,-593.1889 1023.2093,-598 1042.6896,-602.9935 1063.8993,-607.5258 1083.8036,-611.3901"/><polygon fill="#000" stroke="#000" points="1083.287 -614.855 1093.766 -613.29 1084.599 -607.979 1083.287 -614.855"/></g><g id="edge19" class="edge"><title>cnichart-&gt;cnids</title><path fill="none" stroke="#000" d="M966.1993,-655.2033C1006.2561,-660.0242 1082.1501,-669.158 1127.3688,-674.6001"/><polygon fill="#000" stroke="#000" points="1126.999 -678.081 1137.346 -675.801 1127.836 -671.131 1126.999 -678.081"/></g><g id="edge21" class="edge"><title>istiogh-&gt;extrads</title><path fill="none" stroke="#000" d="M996.7751,-463C1020.0402,-463 1047.4974,-463 1073.3617,-463"/><polygon fill="#000" stroke="#000" points="1073.564 -466.5 1083.564 -463 1073.564 -459.5 1073.564 -466.5"/></g><g id="edge23" class="edge"><title>tagchart-&gt;tagdef</title><path fill="none" stroke="#000" d="M957.0672,-367.8323C973.2628,-355.437 998.5078,-337.9082 1023.2093,-328 1039.7676,-321.3582 1058.0925,-316.3188 1075.8945,-312.5051"/><polygon fill="#000" stroke="#000" points="1076.613 -315.931 1085.716 -310.51 1075.22 -309.071 1076.613 -315.931"/></g><g id="edge24" class="edge"><title>tagchart-&gt;tagrap</title><path fill="none" stroke="#000" d="M967.5428,-385.365C995.6965,-388.7533 1040.5291,-394.1489 1080.2545,-398.9299"/><polygon fill="#000" stroke="#000" points="1079.884 -402.411 1090.231 -400.131 1080.721 -395.461 1079.884 -402.411"/></g><g id="edge25" class="edge"><title>tagchart-&gt;tagsta</title><path fill="none" stroke="#000" d="M967.5428,-378.635C994.9302,-375.3389 1038.1011,-370.1433 1077,-365.4618"/><polygon fill="#000" stroke="#000" points="1077.802 -368.891 1087.312 -364.221 1076.965 -361.941 1077.802 -368.891"/></g></g></svg>