<svg xmlns="http://www.w3.org/2000/svg" xmlns:xlink="http://www.w3.org/1999/xlink" width="280" height="283pt" viewBox="0 0 210 283.2"><g id="graph0" class="graph" transform="scale(1 1) rotate(0) translate(4 279.2)"><title>%0</title><polygon fill="#fff" stroke="transparent" points="-4 4 -4 -279.2 206 -279.2 206 4 -4 4"/><g id="clust1" class="cluster"><title>cluster_istioagent</title><polygon fill="none" stroke="orange" points="8 -119.6 8 -196.4 190 -196.4 190 -119.6 8 -119.6"/><text x="99" y="-179.8" fill="#000" font-family="Times,serif" font-size="14" text-anchor="middle">Istio Agent</text></g><g id="clust2" class="cluster"><title>cluster_istiod</title><polygon fill="none" stroke="#add8e6" points="8 -8 8 -84.8 194 -84.8 194 -8 8 -8"/><text x="101" y="-68.2" fill="#000" font-family="Times,serif" font-size="14" text-anchor="middle">Istiod</text></g><g id="node1" class="node"><title>envoy</title><polygon fill="none" stroke="#a020f0" points="127.991 -257.2 107.996 -275.2 68.004 -275.2 48.009 -257.2 68.004 -239.2 107.996 -239.2 127.991 -257.2"/><text x="88" y="-253" fill="#000" font-family="Times,serif" font-size="14" text-anchor="middle">envoy</text></g><g id="node2" class="node"><title>sds</title><ellipse cx="43" cy="-145.6" fill="none" stroke="#000" rx="27" ry="18"/><text x="43" y="-141.4" fill="#000" font-family="Times,serif" font-size="14" text-anchor="middle">sds</text></g><g id="edge1" class="edge"><title>envoy-&gt;sds</title><path fill="none" stroke="#000" d="M76.7285,-229.2468C69.7603,-211.9654 60.8598,-189.8923 53.9518,-172.7605"/><polygon fill="#000" stroke="#000" points="73.583 -230.806 80.569 -238.772 80.076 -228.188 73.583 -230.806"/><polygon fill="#000" stroke="#000" points="57.13 -171.284 50.144 -163.318 50.638 -173.901 57.13 -171.284"/><text x="86.836" y="-208.6" fill="#000" font-family="Times,serif" font-size="14" text-anchor="middle">SDS</text></g><g id="node3" class="node"><title>xdsproxy</title><ellipse cx="135" cy="-145.6" fill="none" stroke="#000" rx="46.956" ry="18"/><text x="135" y="-141.4" fill="#000" font-family="Times,serif" font-size="14" text-anchor="middle">xdsproxy</text></g><g id="edge2" class="edge"><title>envoy-&gt;xdsproxy</title><path fill="none" stroke="#000" d="M99.7471,-229.3068C106.9774,-212.1388 116.2066,-190.2244 123.408,-173.1248"/><polygon fill="#000" stroke="#000" points="96.417 -228.197 95.761 -238.772 102.868 -230.914 96.417 -228.197"/><polygon fill="#000" stroke="#000" points="126.728 -174.26 127.383 -163.686 120.276 -171.543 126.728 -174.26"/><text x="123.998" y="-208.6" fill="#000" font-family="Times,serif" font-size="14" text-anchor="middle">ADS</text></g><g id="node4" class="node"><title>ca</title><ellipse cx="43" cy="-34" fill="none" stroke="#000" rx="27" ry="18"/><text x="43" y="-29.8" fill="#000" font-family="Times,serif" font-size="14" text-anchor="middle">ca</text></g><g id="edge3" class="edge"><title>sds-&gt;ca</title><path fill="none" stroke="#000" d="M43,-127.1715C43,-109.539 43,-82.6924 43,-62.3391"/><polygon fill="#000" stroke="#000" points="46.5 -62.086 43 -52.086 39.5 -62.086 46.5 -62.086"/><text x="56.228" y="-97" fill="#000" font-family="Times,serif" font-size="14" text-anchor="middle">CSR</text></g><g id="node5" class="node"><title>discovery</title><ellipse cx="137" cy="-34" fill="none" stroke="#000" rx="48.656" ry="18"/><text x="137" y="-29.8" fill="#000" font-family="Times,serif" font-size="14" text-anchor="middle">discovery</text></g><g id="edge4" class="edge"><title>xdsproxy-&gt;discovery</title><path fill="none" stroke="#000" d="M135.5099,-117.1451C135.8109,-100.3518 136.1905,-79.169 136.4913,-62.3875"/><polygon fill="#000" stroke="#000" points="132.01 -117.11 135.33 -127.171 139.009 -117.236 132.01 -117.11"/><polygon fill="#000" stroke="#000" points="139.996 -62.147 136.676 -52.086 132.997 -62.021 139.996 -62.147"/><text x="148.998" y="-97" fill="#000" font-family="Times,serif" font-size="14" text-anchor="middle">ADS</text></g></g></svg>